<mxfile host="app.diagrams.net" modified="2023-10-16T16:05:08.315Z" agent="Mozilla/5.0 (X11; Linux x86_64; rv:109.0) Gecko/20100101 Firefox/114.0" version="22.0.4" etag="nSh0Fw7QcyKUsVXXIwuD" type="github">
  <diagram name="PÃ¡gina-1" id="CIDdlqQF2lhq7hsR2QS7">
    <mxGraphModel>
      <root>
        <mxCell id="0" />
        <mxCell id="1" parent="0" />
      </root>
    </mxGraphModel>
  </diagram>
</mxfile>
